#!OML:ASF H:\Male1\Project 1\Capture day 1\Session 1\Male1.ASF
:FULLY-SPECIFIED
:DEGREES
487
root -0.14318 15.6062 0.967211 962.731 87.6508 -827.561
lowerback 17.8326 0.186436 -1.83888
upperback 10.4181 0.721278 -0.0913319
thorax 1.15318 0.598794 0.830086
lowerneck -7.72183 4.71449 11.2958
upperneck 21.5555 6.40007 -5.68812
head 8.52047 3.54158 -3.15021
rclavicle -2.78299e-015 3.97569e-016
rhumerus -37.4896 -0.0337572 -86.1541
rradius 46.9291
rwrist -26.4511
rhand -25.6026 4.69444
rfingers 7.12502
rthumb 0.929567 -25.2833
lclavicle -2.78299e-015 3.97569e-016
lhumerus -28.4569 -12.0433 85.9732
lradius 35.0375
lwrist 6.06788
lhand -23.476 11.3071
lfingers 7.12502
lthumb 2.98345 41.266
rfemur -86.7292 -1.77296 33.4497
rtibia 134.967
rfoot -11.1765 -7.25427
rtoes -41.3672
lfemur 14.5064 -14.2069 -26.871
ltibia 2.94201e-014
lfoot -6.65342 17.7342
ltoes 9.3228
488
root 0.0546623 15.5929 0.959264 949.758 87.3191 -840.042
lowerback 18.0032 0.203295 -1.88187
upperback 10.5044 0.754573 -0.00236938
thorax 1.15754 0.618569 0.941718
lowerneck -7.99106 4.52412 11.2564
upperneck 21.9414 6.08447 -5.44104
head 8.66364 3.42012 -3.08983
rclavicle -4.57205e-015 -9.54166e-015
rhumerus -38.5456 -0.57546 -85.9036
rradius 47.6056
rwrist -26.6513
rhand -25.5353 4.94855
rfingers 7.12502
rthumb 0.994595 -25.0289
lclavicle -4.57205e-015 -9.54166e-015
lhumerus -28.827 -12.1694 86.122
lradius 35.0102
lwrist 6.0734
lhand -23.2822 11.3738
lfingers 7.12502
lthumb 3.1706 41.33
rfemur -89.7574 -1.58666 34.6854
rtibia 133.895
rfoot -10.4675 -7.70538
rtoes -41.946
lfemur 15.895 -14.0473 -27.1381
ltibia 2.3059e-014
lfoot -7.41062 17.1427
ltoes 7.37511
489
root 0.256801 15.5621 0.952293 939.861 87.0601 -849.422
lowerback 18.1345 0.263911 -2.06694
upperback 10.6142 0.826068 0.0429372
thorax 1.2068 0.652405 1.08196
lowerneck -8.18123 4.35667 11.1885
upperneck 22.1636 5.82277 -5.2885
head 8.74391 3.31067 -3.05245
rclavicle 6.95746e-015 -9.14409e-015
rhumerus -39.5569 -1.11569 -85.68
rradius 48.2198
rwrist -26.6102
rhand -25.3638 5.31285
rfingers 7.12502
rthumb 1.16024 -24.6637
lclavicle 6.95746e-015 -9.14409e-015
lhumerus -29.2213 -12.1112 86.226
lradius 34.9088
lwrist 6.03358
lhand -23.3266 11.1438
lfingers 7.12502
lthumb 3.12772 41.1006
rfemur -92.3444 -1.15781 35.7318
rtibia 132.374
rfoot -9.78646 -8.87002
rtoes -42.8379
lfemur 17.3116 -13.753 -27.4876
ltibia -4.37326e-014
lfoot -8.28635 16.6116
ltoes 5.75828
490
root 0.460092 15.5588 0.945294 932.844 86.6059 -855.905
lowerback 18.2765 0.243673 -2.1241
upperback 10.6952 0.807078 0.0936558
thorax 1.22247 0.645628 1.17028
lowerneck -7.97485 4.22411 11.2916
upperneck 21.9423 5.66182 -5.40775
head 8.6213 3.23249 -3.13076
rclavicle 1.78906e-015 -9.93923e-015
rhumerus -40.6409 -1.53413 -85.5622
rradius 48.7493
rwrist -26.3175
rhand -25.3612 5.78922
rfingers 7.12502
rthumb 1.16276 -24.1874
lclavicle 1.78906e-015 -9.93923e-015
lhumerus -29.8301 -11.7248 86.2607
lradius 34.8669
lwrist 5.85457
lhand -23.5503 11.1199
lfingers 7.12502
lthumb 2.91164 41.0798
rfemur -93.9694 -1.4391 36.8865
rtibia 130.024
rfoot -9.42537 -9.9427
rtoes -42.9153
lfemur 18.7216 -13.5333 -27.6539
ltibia -3.18055e-014
lfoot -9.04908 16.1147
ltoes 4.33511
491
root 0.665872 15.5447 0.937756 924.755 86.0244 -863.548
lowerback 18.5133 0.156208 -2.26447
upperback 10.6567 0.673462 0.0844388
thorax 1.06551 0.578093 1.25937
lowerneck -8.20947 4.13356 11.0377
upperneck 22.4214 5.47611 -4.9091
head 8.79168 3.18409 -2.93545
rclavicle 1.98785e-015 -2.5842e-014
rhumerus -41.7729 -1.89026 -85.5132
rradius 49.0631
rwrist -25.8737
rhand -25.38 6.14259
rfingers 7.12502
rthumb 1.14458 -23.8341
lclavicle 1.98785e-015 -2.5842e-014
lhumerus -30.5902 -11.0822 86.2476
lradius 34.6981
lwrist 5.51858
lhand -23.9101 11.1934
lfingers 7.12502
lthumb 2.5642 41.1578
rfemur -95.337 -2.03984 37.7657
rtibia 127.242
rfoot -9.00374 -11.0496
rtoes -40.9982
lfemur 20.0619 -13.4862 -27.9335
ltibia 4.92986e-014
lfoot -9.65429 15.5919
ltoes 3.34509
492
root 0.873687 15.5276 0.930766 917.885 85.5306 -870.056
lowerback 18.2134 0.0939648 -2.58432
upperback 10.8906 0.580259 0.0402491
thorax 1.4784 0.521647 1.41461
lowerneck -7.99967 4.11539 11.2351
upperneck 21.9697 5.45499 -5.09849
head 8.60755 3.16286 -3.03708
rclavicle 2.5842e-015 4.37326e-015
rhumerus -42.3527 -2.17337 -85.4834
rradius 49.1455
rwrist -25.4986
rhand -25.3196 6.53234
rfingers 7.12502
rthumb 1.2029 -23.444
lclavicle 2.5842e-015 4.37326e-015
lhumerus -30.7716 -10.2901 86.1379
lradius 34.217
lwrist 5.14088
lhand -24.1461 11.0411
lfingers 7.12502
lthumb 2.33623 41.0081
rfemur -96.19 -2.6429 38.3882
rtibia 123.99
rfoot -8.53415 -11.9821
rtoes -39.4896
lfemur 21.334 -13.3358 -28.2993
ltibia 4.45278e-014
lfoot -10.3024 14.9648
ltoes 3.03331
493
root 1.08099 15.5026 0.924914 914.576 85.1291 -872.991
lowerback 18.0298 0.115909 -2.77184
upperback 10.9988 0.601671 0.0105009
thorax 1.6905 0.526162 1.4885
lowerneck -8.21675 3.98479 10.994
upperneck 22.3715 5.21417 -4.63493
head 8.74564 3.08492 -2.862
rclavicle -9.93923e-015 -2.38542e-015
rhumerus -43.104 -2.46284 -85.4812
rradius 49.1956
rwrist -25.2436
rhand -25.3919 6.89377
rfingers 7.12502
rthumb 1.1331 -23.083
lclavicle -9.93923e-015 -2.38542e-015
lhumerus -31.1258 -9.60043 86.0857
lradius 33.6757
lwrist 4.93701
lhand -24.2107 11.5037
lfingers 7.12502
lthumb 2.2739 41.4714
rfemur -96.2142 -3.10936 39.0361
rtibia 120.262
rfoot -8.36942 -12.5909
rtoes -38.6609
lfemur 22.6102 -13.0085 -28.4772
ltibia 3.33958e-014
lfoot -11.0736 14.2872
ltoes 2.96746
494
root 1.2925 15.4564 0.918166 910.707 84.7679 -876.567
lowerback 17.8451 0.189928 -3.02116
upperback 10.9975 0.669756 -0.0656077
thorax 1.78249 0.550111 1.53973
lowerneck -7.84891 3.84894 11.2198
upperneck 22.2269 5.04381 -4.67328
head 8.62136 3.02622 -2.93605
rclavicle 7.15625e-015 7.95139e-016
rhumerus -43.893 -2.81563 -85.4954
rradius 49.0953
rwrist -25.1917
rhand -25.4908 7.01822
rfingers 7.12502
rthumb 1.03755 -22.959
lclavicle 7.15625e-015 7.95139e-016
lhumerus -31.6258 -8.96225 86.0784
lradius 33.0754
lwrist 4.74377
lhand -24.3668 12.1684
lfingers 7.12502
lthumb 2.12313 42.1376
rfemur -95.8943 -3.54031 39.3858
rtibia 116.263
rfoot -7.39675 -13.2449
rtoes -34.1885
lfemur 23.8144 -12.6597 -28.7399
ltibia 1.11319e-014
lfoot -11.9004 13.5823
ltoes 3.23149
495
root 1.50825 15.4338 0.911782 908.252 84.4861 -878.788
lowerback 17.5087 0.296423 -3.2655
upperback 10.9883 0.782323 -0.0937795
thorax 1.94074 0.591411 1.63368
lowerneck -8.14946 3.7081 10.8804
upperneck 22.9137 4.78403 -4.07446
head 8.86831 2.9556 -2.69945
rclavicle 0 9.93923e-015
rhumerus -44.5855 -3.19614 -85.4262
rradius 48.8227
rwrist -25.1783
rhand -25.4127 6.94668
rfingers 7.12502
rthumb 1.11299 -23.0302
lclavicle 0 9.93923e-015
lhumerus -32.1558 -8.30398 86.1322
lradius 32.4142
lwrist 4.37153
lhand -24.4307 12.5823
lfingers 7.12502
lthumb 2.06135 42.5521
rfemur -94.79 -4.13467 39.7062
rtibia 111.741
rfoot -6.5913 -13.6032
rtoes -29.931
lfemur 24.9489 -12.2219 -28.8712
ltibia 6.20208e-014
lfoot -12.6488 12.9204
ltoes 3.26962
